<?xml version="1.0" encoding="UTF-8" standalone="no"?>
<!-- Created using Krita: https://krita.org -->

<svg
   width="168pt"
   height="108pt"
   viewBox="0 0 168 108"
   version="1.1"
   id="svg1"
   sodipodi:docname="blocchi_bianco_su_alpha.svg"
   inkscape:version="1.4.2 (f4327f4, 2025-05-13)"
   xmlns:inkscape="http://www.inkscape.org/namespaces/inkscape"
   xmlns:sodipodi="http://sodipodi.sourceforge.net/DTD/sodipodi-0.dtd"
   xmlns:xlink="http://www.w3.org/1999/xlink"
   xmlns="http://www.w3.org/2000/svg"
   xmlns:svg="http://www.w3.org/2000/svg">
  <sodipodi:namedview
     id="namedview1"
     pagecolor="#505050"
     bordercolor="#ffffff"
     borderopacity="1"
     inkscape:showpageshadow="0"
     inkscape:pageopacity="0"
     inkscape:pagecheckerboard="1"
     inkscape:deskcolor="#505050"
     inkscape:document-units="pt"
     inkscape:zoom="4"
     inkscape:cx="108.25"
     inkscape:cy="83.375"
     inkscape:window-width="1920"
     inkscape:window-height="1001"
     inkscape:window-x="-9"
     inkscape:window-y="-9"
     inkscape:window-maximized="1"
     inkscape:current-layer="svg1">
    <sodipodi:guide
       position="80.675781,48.802622"
       orientation="26.695312,0"
       id="guide816"
       inkscape:locked="false" />
    <sodipodi:guide
       position="80.675781,28.781138"
       orientation="0,26.695319"
       id="guide817"
       inkscape:locked="false" />
    <sodipodi:guide
       position="100.69727,28.781138"
       orientation="-26.695312,0"
       id="guide818"
       inkscape:locked="false" />
    <sodipodi:guide
       position="100.69727,48.802622"
       orientation="0,-26.695319"
       id="guide819"
       inkscape:locked="false" />
    <sodipodi:guide
       position="80.698529,70.927622"
       orientation="26.695312,0"
       id="guide820"
       inkscape:locked="false" />
    <sodipodi:guide
       position="80.698529,50.906138"
       orientation="0,26.695319"
       id="guide821"
       inkscape:locked="false" />
    <sodipodi:guide
       position="100.72002,50.906138"
       orientation="-26.695312,0"
       id="guide822"
       inkscape:locked="false" />
    <sodipodi:guide
       position="100.72002,70.927622"
       orientation="0,-26.695319"
       id="guide823"
       inkscape:locked="false" />
  </sodipodi:namedview>
  <defs
     id="defs1">
    <inkscape:path-effect
       effect="fillet_chamfer"
       id="path-effect828"
       is_visible="true"
       lpeversion="1"
       nodesatellites_param="F,0,0,1,0,0.75,0,1 @ F,0,0,1,0,3.2390662,0,1 @ F,0,1,1,0,3.2390662,0,1 @ F,0,0,1,0,0.75,0,1 @ F,0,0,1,0,0.75,0,1 @ F,0,0,1,0,0.75,0,1"
       radius="1"
       unit="px"
       method="auto"
       mode="F"
       chamfer_steps="1"
       flexible="false"
       use_knot_distance="true"
       apply_no_radius="true"
       apply_with_radius="true"
       only_selected="false"
       hide_knots="false" />
    <inkscape:path-effect
       effect="fillet_chamfer"
       id="path-effect827"
       is_visible="true"
       lpeversion="1"
       nodesatellites_param="F,0,0,1,0,4.2140333e-05,0,1 @ F,0,0,1,0,0.75,0,1 @ F,0,0,1,0,0.7557261,0,1 @ F,0,0,1,0,0.75,0,1 @ F,0,0,1,0,0.75,0,1"
       radius="1"
       unit="px"
       method="auto"
       mode="F"
       chamfer_steps="1"
       flexible="false"
       use_knot_distance="true"
       apply_no_radius="true"
       apply_with_radius="true"
       only_selected="false"
       hide_knots="false" />
    <inkscape:path-effect
       effect="fillet_chamfer"
       id="path-effect826"
       is_visible="true"
       lpeversion="1"
       nodesatellites_param="F,0,0,1,0,0,0,1 @ F,0,0,1,0,0,0,1 @ F,0,0,1,0,0,0,1 @ F,0,0,1,0,0,0,1 @ F,0,0,1,0,0,0,1 @ F,0,0,1,0,0,0,1 @ F,0,0,1,0,0,0,1 @ F,0,0,1,0,0,0,1 @ F,0,0,1,0,0,0,1 @ F,0,0,1,0,0,0,1 @ F,0,0,1,0,0,0,1 @ F,0,0,1,0,0,0,1 @ F,0,0,1,0,0,0,1 @ F,0,0,1,0,0,0,1 @ F,0,0,1,0,0,0,1 @ F,0,0,1,0,0,0,1 @ F,0,0,1,0,0,0,1 @ F,0,0,1,0,0,0,1 @ F,0,0,1,0,0,0,1 @ F,0,0,1,0,0,0,1 @ F,0,0,1,0,0,0,1 @ F,0,0,1,0,0,0,1 @ F,0,0,1,0,0,0,1 @ F,0,0,1,0,0,0,1 @ F,0,0,1,0,0,0,1 @ F,0,0,1,0,0,0,1 @ F,0,0,1,0,0,0,1 @ F,0,0,1,0,0,0,1 @ F,0,0,1,0,0,0,1 @ F,0,0,1,0,0,0,1 @ F,0,0,1,0,0,0,1 @ F,0,0,1,0,0,0,1 @ F,0,0,1,0,0,0,1 @ F,0,0,1,0,0,0,1 @ F,0,0,1,0,0,0,1 @ F,0,0,1,0,0,0,1 @ F,0,0,1,0,0,0,1 @ F,0,0,1,0,0,0,1 @ F,0,0,1,0,0,0,1 @ F,0,0,1,0,0,0,1 @ F,0,0,1,0,0,0,1 @ F,0,0,1,0,0,0,1 @ F,0,0,1,0,0,0,1 @ F,0,0,1,0,0,0,1 @ F,0,0,1,0,0,0,1 @ F,0,0,1,0,0,0,1 @ F,0,0,1,0,0,0,1 @ F,0,0,1,0,0,0,1 @ F,0,0,1,0,0,0,1 @ F,0,0,1,0,0,0,1 @ F,0,0,1,0,0,0,1 @ F,0,0,1,0,0,0,1 @ F,0,0,1,0,0,0,1 @ F,0,0,1,0,0,0,1 @ F,0,0,1,0,0,0,1 @ F,0,0,1,0,0,0,1 @ F,0,0,1,0,0,0,1 @ F,0,0,1,0,0,0,1 @ F,0,0,1,0,0,0,1 @ F,0,0,1,0,0,0,1 @ F,0,0,1,0,0,0,1 @ F,0,0,1,0,0,0,1 @ F,0,0,1,0,0,0,1 @ F,0,0,1,0,0,0,1 @ F,0,0,1,0,0,0,1 @ F,0,0,1,0,0,0,1 @ F,0,0,1,0,0,0,1 @ F,0,0,1,0,0,0,1 @ F,0,0,1,0,0,0,1 @ F,0,0,1,0,0,0,1 @ F,0,0,1,0,0,0,1 @ F,0,0,1,0,0,0,1 @ F,0,0,1,0,0,0,1 @ F,0,0,1,0,0,0,1 @ F,0,0,1,0,0,0,1 @ F,0,0,1,0,0,0,1 @ F,0,0,1,0,0,0,1 @ F,0,0,1,0,0,0,1 @ F,0,0,1,0,0,0,1 @ F,0,0,1,0,0,0,1 @ F,0,0,1,0,0,0,1 @ F,0,0,1,0,0,0,1 @ F,0,0,1,0,0,0,1 @ F,0,0,1,0,0,0,1 @ F,0,0,1,0,0,0,1 @ F,0,0,1,0,0,0,1 @ F,0,0,1,0,0,0,1 @ F,0,0,1,0,0,0,1 @ F,0,0,1,0,0,0,1 @ F,0,0,1,0,0,0,1 @ F,0,0,1,0,0,0,1 @ F,0,0,1,0,0,0,1 @ F,0,0,1,0,0,0,1 @ F,0,0,1,0,0,0,1 @ F,0,0,1,0,0,0,1 @ F,0,0,1,0,0,0,1 @ F,0,0,1,0,0,0,1 @ F,0,0,1,0,0,0,1 @ F,0,0,1,0,0,0,1 @ F,0,0,1,0,0,0,1 @ F,0,0,1,0,0,0,1 @ F,0,0,1,0,0,0,1 @ F,0,0,1,0,0,0,1 @ F,0,0,1,0,0,0,1 @ F,0,0,1,0,0,0,1 @ F,0,0,1,0,0,0,1 @ F,0,0,1,0,0,0,1 @ F,0,0,1,0,0,0,1 @ F,0,0,1,0,0,0,1 @ F,0,0,1,0,0,0,1 @ F,0,0,1,0,0,0,1 @ F,0,0,1,0,0,0,1 @ F,0,0,1,0,0,0,1 @ F,0,0,1,0,0,0,1 @ F,0,0,1,0,0,0,1 @ F,0,0,1,0,0,0,1 @ F,0,0,1,0,0,0,1 @ F,0,0,1,0,0,0,1 @ F,0,0,1,0,0,0,1 @ F,0,0,1,0,0,0,1 @ F,0,0,1,0,0,0,1 @ F,0,0,1,0,0,0,1 @ F,0,0,1,0,0,0,1 @ F,0,0,1,0,0,0,1 @ F,0,0,1,0,0,0,1 @ F,0,0,1,0,0,0,1 @ F,0,0,1,0,0,0,1 @ F,0,0,1,0,0,0,1 @ F,0,0,1,0,0,0,1 @ F,0,0,1,0,0,0,1 @ F,0,0,1,0,0,0,1 @ F,0,0,1,0,0,0,1 @ F,0,0,1,0,9.09375,0,1 @ F,0,0,1,0,0,0,1 @ F,0,0,1,0,0,0,1 @ F,0,0,1,0,0,0,1 @ F,0,0,1,0,0,0,1 @ F,0,0,1,0,0,0,1 @ F,0,0,1,0,0,0,1 @ F,0,0,1,0,0,0,1 @ F,0,0,1,0,0,0,1 @ F,0,0,1,0,0,0,1 @ F,0,0,1,0,0,0,1 @ F,0,0,1,0,0,0,1 @ F,0,0,1,0,0,0,1 @ F,0,0,1,0,0,0,1 @ F,0,0,1,0,0,0,1 @ F,0,0,1,0,0,0,1 @ F,0,0,1,0,0,0,1 @ F,0,0,1,0,0,0,1 @ F,0,0,1,0,0,0,1 @ F,0,0,1,0,0,0,1 @ F,0,0,1,0,0,0,1 @ F,0,0,1,0,0,0,1 @ F,0,0,1,0,0,0,1 @ F,0,0,1,0,0,0,1 @ F,0,0,1,0,0,0,1 @ F,0,0,1,0,0,0,1 @ F,0,0,1,0,0,0,1 @ F,0,0,1,0,0,0,1 @ F,0,0,1,0,0,0,1 @ F,0,0,1,0,0,0,1 @ F,0,0,1,0,0,0,1 @ F,0,0,1,0,0,0,1 @ F,0,0,1,0,0,0,1 @ F,0,0,1,0,0,0,1 @ F,0,0,1,0,0,0,1 @ F,0,0,1,0,0,0,1 @ F,0,0,1,0,0,0,1 @ F,0,0,1,0,0,0,1 @ F,0,0,1,0,0,0,1 @ F,0,0,1,0,0,0,1 @ F,0,0,1,0,0,0,1 @ F,0,0,1,0,0,0,1 @ F,0,0,1,0,0,0,1 @ F,0,0,1,0,0,0,1 @ F,0,0,1,0,0,0,1 @ F,0,0,1,0,0,0,1 @ F,0,0,1,0,0,0,1 @ F,0,0,1,0,0,0,1 @ F,0,0,1,0,0,0,1 @ F,0,0,1,0,0,0,1 @ F,0,0,1,0,0,0,1 @ F,0,0,1,0,0,0,1 @ F,0,0,1,0,0,0,1 @ F,0,0,1,0,0,0,1 @ F,0,0,1,0,0,0,1 @ F,0,0,1,0,0,0,1 @ F,0,0,1,0,0,0,1 @ F,0,0,1,0,0,0,1 @ F,0,0,1,0,0,0,1 @ F,0,0,1,0,0,0,1 @ F,0,0,1,0,0,0,1 @ F,0,0,1,0,0,0,1 @ F,0,0,1,0,0,0,1 @ F,0,0,1,0,0,0,1 @ F,0,0,1,0,0,0,1 @ F,0,0,1,0,0,0,1 @ F,0,0,1,0,0,0,1 @ F,0,0,1,0,0,0,1 @ F,0,0,1,0,0,0,1 @ F,0,0,1,0,0,0,1 @ F,0,0,1,0,0,0,1 @ F,0,0,1,0,0,0,1 @ F,0,0,1,0,0,0,1 @ F,0,0,1,0,0,0,1 @ F,0,0,1,0,0,0,1 @ F,0,0,1,0,0,0,1 @ F,0,0,1,0,0,0,1 @ F,0,0,1,0,0,0,1 @ F,0,0,1,0,0,0,1 @ F,0,0,1,0,0,0,1 @ F,0,0,1,0,0,0,1 @ F,0,0,1,0,0,0,1 @ F,0,0,1,0,0,0,1 @ F,0,0,1,0,0,0,1 @ F,0,0,1,0,0,0,1 @ F,0,0,1,0,0,0,1 @ F,0,0,1,0,0,0,1 @ F,0,0,1,0,0,0,1 @ F,0,0,1,0,0,0,1 @ F,0,0,1,0,0,0,1 @ F,0,0,1,0,0,0,1 @ F,0,0,1,0,0,0,1 @ F,0,0,1,0,0,0,1 @ F,0,0,1,0,0,0,1 @ F,0,0,1,0,0,0,1 @ F,0,0,1,0,0,0,1 @ F,0,0,1,0,0,0,1 @ F,0,0,1,0,0,0,1 @ F,0,0,1,0,0,0,1 @ F,0,0,1,0,0,0,1 @ F,0,0,1,0,0,0,1 @ F,0,0,1,0,0,0,1 @ F,0,0,1,0,0,0,1 @ F,0,0,1,0,0,0,1 @ F,0,0,1,0,0,0,1 @ F,0,0,1,0,0,0,1 @ F,0,0,1,0,0,0,1 @ F,0,0,1,0,0,0,1 @ F,0,0,1,0,0,0,1 @ F,0,0,1,0,0,0,1 @ F,0,0,1,0,0,0,1 @ F,0,0,1,0,0,0,1 @ F,0,0,1,0,0,0,1 @ F,0,0,1,0,0,0,1 @ F,0,0,1,0,0,0,1 @ F,0,0,1,0,0,0,1 @ F,0,0,1,0,0,0,1 @ F,0,0,1,0,0,0,1 @ F,0,0,1,0,0,0,1 @ F,0,0,1,0,0,0,1 @ F,0,0,1,0,0,0,1 @ F,0,0,1,0,0,0,1 @ F,0,0,1,0,0,0,1 @ F,0,0,1,0,0,0,1 @ F,0,0,1,0,0,0,1 @ F,0,0,1,0,0,0,1 @ F,0,0,1,0,0,0,1 @ F,0,0,1,0,0,0,1"
       radius="0"
       unit="px"
       method="auto"
       mode="F"
       chamfer_steps="1"
       flexible="false"
       use_knot_distance="true"
       apply_no_radius="true"
       apply_with_radius="true"
       only_selected="false"
       hide_knots="false" />
    <inkscape:path-effect
       effect="fillet_chamfer"
       id="path-effect35"
       is_visible="true"
       lpeversion="1"
       nodesatellites_param="F,0,0,1,0,4.5,0,1 @ F,0,0,1,0,4.5,0,1 @ F,0,0,1,0,4.5,0,1 @ F,0,0,1,0,4.5,0,1"
       radius="6"
       unit="px"
       method="auto"
       mode="F"
       chamfer_steps="1"
       flexible="false"
       use_knot_distance="true"
       apply_no_radius="true"
       apply_with_radius="true"
       only_selected="false"
       hide_knots="false" />
    <pattern
       inkscape:collect="always"
       xlink:href="#pattern32"
       preserveAspectRatio="xMidYMid"
       id="pattern34"
       patternTransform="translate(1.184082e-6)" />
    <pattern
       patternUnits="userSpaceOnUse"
       width="28.991376"
       height="28.991381"
       patternTransform="translate(101.6466,77.781748)"
       preserveAspectRatio="xMidYMid"
       id="pattern32">
      <rect
         style="fill:#ffffff;fill-opacity:1;stroke-width:1"
         id="rect28"
         width="28.991377"
         height="28.991381"
         x="0"
         y="0"
         ry="7.1594558"
         rx="6.5407376" />
    </pattern>
    <pattern
       patternUnits="userSpaceOnUse"
       width="28.991377"
       height="28.991381"
       patternTransform="translate(101.6466,77.781746)"
       preserveAspectRatio="xMidYMid"
       id="pattern33">
      <rect
         style="fill:url(#pattern34);stroke:none"
         width="28.991377"
         height="28.991381"
         x="0"
         y="0"
         id="rect32" />
    </pattern>
  </defs>
  <path
     d="M 131.48145,53.986816 V 81.37207 h 26.83886 V 53.986816 Z"
     style="display:none;fill:#ffffff;fill-rule:evenodd;stroke:#000000;stroke-width:0;stroke-linecap:square;stroke-linejoin:bevel;stroke-opacity:0"
     id="path25" />
  <path
     d="M 103.52051,53.986816 V 81.37207 H 130.3125 V 53.986816 Z"
     style="display:none;fill:#ffffff;fill-rule:evenodd;stroke:#000000;stroke-width:0;stroke-linecap:square;stroke-linejoin:bevel;stroke-opacity:0"
     id="path24" />
  <path
     d="M 73.633103,53.589068 V 80.974322 H 100.49394 V 53.589068 Z"
     style="display:none;fill:#ffffff;fill-rule:evenodd;stroke:#000000;stroke-width:0;stroke-linecap:square;stroke-linejoin:bevel;stroke-opacity:0"
     id="path23"
     sodipodi:nodetypes="ccccc" />
  <path
     d="m 36.647461,37.580566 -0.392578,0.137696 -0.493653,0.183105 -0.490722,0.194824 -0.486328,0.203614 -0.483399,0.212402 -0.477539,0.222656 -0.474609,0.231446 -0.470215,0.241699 -0.464355,0.249023 -0.461426,0.260742 -0.455567,0.268067 -0.449707,0.276855 -0.445312,0.28711 -0.439453,0.295898 -0.395508,0.276856 1.662598,1.655273 z"
     style="fill:#ffffff;fill-rule:evenodd;stroke:#000000;stroke-width:0;stroke-linecap:square;stroke-linejoin:bevel;stroke-opacity:0"
     id="path22" />
  <path
     d="m 39.213867,36.357422 -7.790039,7.759277 -6.899414,-6.873047 -2.373047,2.381836 6.890625,6.864258 -7.776855,7.747559 2.633789,2.644043 7.788574,-7.757813 7.195313,7.167481 2.371582,-2.381836 -7.185059,-7.158692 7.77832,-7.749023 z"
     style="fill:#ffffff;fill-rule:evenodd;stroke:#000000;stroke-width:0;stroke-linecap:square;stroke-linejoin:bevel;stroke-opacity:0"
     id="path21" />
  <path
     d="m 131.48145,25.371094 v 27.357422 h 26.83886 V 25.371094 Z"
     style="display:none;fill:#ffffff;fill-rule:evenodd;stroke:#000000;stroke-width:0;stroke-linecap:square;stroke-linejoin:bevel;stroke-opacity:0"
     id="path20" />
  <path
     d="m 131.48145,25.371094 h 26.83886 v 27.357422 h -26.83886 z"
     style="display:none;fill:#ffffff;fill-rule:evenodd;stroke:#000000;stroke-width:0;stroke-linecap:square;stroke-linejoin:bevel;stroke-opacity:0"
     id="path19" />
  <path
     d="M 103.52051,25.371094 V 52.728516 H 130.3125 V 25.371094 Z"
     style="display:none;fill:#ffffff;fill-rule:evenodd;stroke:#000000;stroke-width:0;stroke-linecap:square;stroke-linejoin:bevel;stroke-opacity:0"
     id="path18" />
  <path
     d="M 103.52051,25.371094 H 130.3125 V 52.728516 H 103.52051 Z"
     style="display:none;fill:#ffffff;fill-rule:evenodd;stroke:#000000;stroke-width:0;stroke-linecap:square;stroke-linejoin:bevel;stroke-opacity:0"
     id="path17" />
  <path
     d="M 72.845215,22.895508 V 50.25293 h 26.86084 V 22.895508 Z"
     style="display:none;fill:#ffffff;fill-rule:evenodd;stroke:#000000;stroke-width:0;stroke-linecap:square;stroke-linejoin:bevel;stroke-opacity:0"
     id="path16" />
  <path
     id="path15"
     style="display:none;fill:#ffffff;fill-rule:evenodd;stroke:#000000;stroke-width:0;stroke-linecap:square;stroke-linejoin:bevel;stroke-opacity:0"
     d="M 72.845215,22.895508 V 50.25293 h 26.86084 V 22.895508 Z" />
  <path
     id="path294"
     style="display:inline;fill:#ffffff;fill-rule:evenodd;stroke:#000000;stroke-width:0;stroke-linecap:square;stroke-linejoin:bevel;stroke-opacity:0"
     d="M 65.181152 22.504395 L 64.785645 22.598145 L 64.394531 22.697754 L 64.009277 22.800293 L 63.629883 22.907227 L 63.256348 23.018555 L 62.887207 23.134277 L 62.523926 23.254395 L 62.166504 23.377441 L 61.814941 23.506348 L 61.469238 23.638184 L 61.12793 23.774414 L 60.793945 23.915039 L 60.464355 24.060059 L 60.13916 24.209473 L 59.821289 24.361816 L 59.507813 24.52002 L 59.200195 24.681152 L 58.898438 24.84668 L 58.602539 25.016602 L 58.3125 25.190918 L 58.026855 25.369629 L 57.74707 25.55127 L 57.473145 25.737305 L 57.203613 25.929199 L 56.941406 26.124023 L 56.683594 26.323242 L 56.431641 26.525391 L 56.185547 26.733398 L 55.945313 26.944336 L 55.709473 27.161133 L 55.479492 27.380859 L 55.255371 27.60498 L 55.037109 27.833496 L 54.824707 28.066406 L 54.616699 28.302246 L 54.414551 28.543945 L 54.218262 28.788574 L 54.027832 29.037598 L 53.841797 29.291016 L 53.661621 29.548828 L 53.487305 29.80957 L 53.318848 30.076172 L 53.15625 30.345703 L 52.998047 30.621094 L 52.847168 30.899414 L 52.812012 30.968262 C 52.810853 30.969851 52.810744 30.968923 52.809082 30.971191 C 52.631478 31.213671 49.598447 35.303284 46.83252 35.57666 C 46.671484 35.592577 46.545731 35.607939 46.450195 35.623535 C 44.66103 35.651693 41.852539 36.116727 40.151367 36.625488 L 40.183594 36.625488 L 40.154297 36.631348 L 42.720703 39.208008 L 35.283691 46.617188 L 42.673828 53.979492 L 38.834473 57.833496 L 31.429688 50.456543 L 24.017578 57.839355 L 20.178223 53.985352 L 27.575684 46.617188 L 25.669922 44.720215 L 25.356445 45.062988 L 25.000488 45.46875 L 24.650391 45.883301 L 24.309082 46.305176 L 23.975098 46.734375 L 23.648438 47.172363 L 23.330566 47.617676 L 23.02002 48.070313 L 22.718262 48.531738 L 22.425293 49.000488 L 22.141113 49.475098 L 21.867188 49.952637 L 21.60498 50.436035 L 21.353027 50.920898 L 21.111328 51.411621 L 20.881348 51.903809 L 20.661621 52.400391 L 20.450684 52.899902 L 20.25293 53.402344 L 20.063965 53.907715 L 19.885254 54.414551 L 19.718262 54.925781 L 19.561523 55.437012 L 19.415039 55.952637 L 19.278809 56.468262 L 19.152832 56.986816 L 19.037109 57.506836 L 18.933105 58.02832 L 18.839355 58.55127 L 18.754395 59.075684 L 18.681152 59.600098 L 18.618164 60.127441 L 18.56543 60.65332 L 18.522949 61.180664 L 18.492188 61.708008 L 18.470215 62.236816 L 18.467285 62.371582 L 9.3193359 62.371582 L 9.3193359 81.467285 L 43.999512 81.467285 L 43.999512 81.496582 L 56.087402 81.496582 A 9.09375 9.09375 0 0 0 65.181152 72.402832 L 65.181152 39.640137 C 65.176932 39.516497 65.170001 39.400634 65.160645 39.300293 C 64.86541 36.134411 62.494813 35.614902 61.255371 35.562012 C 60.841989 35.54437 60.504906 35.248197 60.503906 34.833984 L 60.492188 29.71875 L 60.484863 29.657227 L 60.474609 29.535645 L 60.46875 29.414063 L 60.467285 29.293945 L 60.470215 29.173828 L 60.476074 29.056641 L 60.486328 28.937988 L 60.500977 28.822266 L 60.52002 28.705078 L 60.543457 28.59082 L 60.569824 28.476563 L 60.600586 28.362305 L 60.635742 28.250977 L 60.675293 28.138184 L 60.719238 28.026855 L 60.766113 27.916992 L 60.817383 27.807129 L 60.873047 27.69873 L 60.933105 27.590332 L 60.997559 27.481934 L 61.064941 27.373535 L 61.135254 27.265137 L 61.209961 27.156738 L 61.287598 27.046875 L 61.366699 26.938477 L 61.450195 26.828613 L 61.536621 26.720215 L 61.624512 26.610352 L 61.715332 26.501953 L 61.809082 26.393555 L 61.902832 26.285156 L 61.999512 26.176758 L 62.097656 26.069824 L 62.197266 25.961426 L 62.29834 25.855957 L 62.399414 25.749023 L 62.501953 25.643555 L 62.605957 25.538086 L 62.709961 25.434082 L 62.813965 25.331543 L 62.917969 25.229004 L 63.023438 25.12793 L 63.127441 25.026855 L 63.231445 24.927246 L 63.333984 24.829102 L 63.437988 24.730957 L 63.539063 24.635742 L 63.640137 24.540527 L 63.739746 24.446777 L 63.837891 24.355957 L 63.93457 24.265137 L 64.029785 24.175781 L 64.12207 24.087891 L 64.212891 24.00293 L 64.300781 23.917969 L 64.387207 23.835938 L 64.470703 23.755371 L 64.55127 23.67627 L 64.628906 23.600098 L 64.703613 23.525391 L 64.773926 23.452148 L 64.841309 23.381836 L 64.905762 23.312988 L 64.96582 23.24707 L 65.021484 23.182617 L 65.072754 23.121094 L 65.119629 23.0625 L 65.163574 23.005371 L 65.20166 22.951172 L 65.233887 22.899902 L 65.261719 22.850098 L 65.285156 22.804688 L 65.30127 22.760742 L 65.312988 22.719727 L 65.318848 22.683105 L 65.318848 22.647949 L 65.312988 22.615723 L 65.299805 22.586426 L 65.280762 22.561523 L 65.254395 22.539551 L 65.222168 22.519043 L 65.181152 22.504395 z " />
  <path
     id="path35"
     style="fill:#ffffff;fill-opacity:1;stroke-width:0.75"
     sodipodi:type="inkscape:offset"
     inkscape:radius="0"
     inkscape:original="M 85.175781 57.009766 A 4.5 4.5 0 0 0 80.675781 61.509766 L 80.675781 72.53125 A 4.5 4.5 0 0 0 85.175781 77.03125 L 96.197266 77.03125 A 4.5 4.5 0 0 0 100.69727 72.53125 L 100.69727 61.509766 A 4.5 4.5 0 0 0 96.197266 57.009766 L 85.175781 57.009766 z "
     d="m 85.175781,57.009766 a 4.5,4.5 0 0 0 -4.5,4.5 V 72.53125 a 4.5,4.5 0 0 0 4.5,4.5 h 11.021485 a 4.5,4.5 0 0 0 4.500004,-4.5 V 61.509766 a 4.5,4.5 0 0 0 -4.500004,-4.5 z"
     transform="matrix(1.1435996,0,0,1.1435996,-17.719292,-6.354978)" />
  <path
     id="path819"
     style="fill:#ffffff;fill-opacity:1;stroke-width:0.75"
     sodipodi:type="inkscape:offset"
     inkscape:radius="0"
     inkscape:original="M 85.175781 57.009766 A 4.5 4.5 0 0 0 80.675781 61.509766 L 80.675781 72.53125 A 4.5 4.5 0 0 0 85.175781 77.03125 L 96.197266 77.03125 A 4.5 4.5 0 0 0 100.69727 72.53125 L 100.69727 61.509766 A 4.5 4.5 0 0 0 96.197266 57.009766 L 85.175781 57.009766 z "
     d="m 85.175781,57.009766 a 4.5,4.5 0 0 0 -4.5,4.5 V 72.53125 a 4.5,4.5 0 0 0 4.5,4.5 h 11.021485 a 4.5,4.5 0 0 0 4.500004,-4.5 V 61.509766 a 4.5,4.5 0 0 0 -4.500004,-4.5 z"
     transform="matrix(1.1435996,0,0,1.1435996,-21.660139,-35.838405)" />
  <path
     id="path823"
     style="fill:#ffffff;fill-opacity:1;stroke-width:0.75"
     sodipodi:type="inkscape:offset"
     inkscape:radius="0"
     inkscape:original="M 85.175781 57.009766 A 4.5 4.5 0 0 0 80.675781 61.509766 L 80.675781 72.53125 A 4.5 4.5 0 0 0 85.175781 77.03125 L 96.197266 77.03125 A 4.5 4.5 0 0 0 100.69727 72.53125 L 100.69727 61.509766 A 4.5 4.5 0 0 0 96.197266 57.009766 L 85.175781 57.009766 z "
     d="m 85.175781,57.009766 a 4.5,4.5 0 0 0 -4.5,4.5 V 72.53125 a 4.5,4.5 0 0 0 4.5,4.5 h 11.021485 a 4.5,4.5 0 0 0 4.500004,-4.5 V 61.509766 a 4.5,4.5 0 0 0 -4.500004,-4.5 z"
     transform="matrix(1.1435996,0,0,1.1435996,8.0542662,-6.354978)" />
  <path
     id="path824"
     style="fill:#ffffff;fill-opacity:1;stroke-width:0.75"
     sodipodi:type="inkscape:offset"
     inkscape:radius="0"
     inkscape:original="M 85.175781 57.009766 A 4.5 4.5 0 0 0 80.675781 61.509766 L 80.675781 72.53125 A 4.5 4.5 0 0 0 85.175781 77.03125 L 96.197266 77.03125 A 4.5 4.5 0 0 0 100.69727 72.53125 L 100.69727 61.509766 A 4.5 4.5 0 0 0 96.197266 57.009766 L 85.175781 57.009766 z "
     d="m 85.175781,57.009766 a 4.5,4.5 0 0 0 -4.5,4.5 V 72.53125 a 4.5,4.5 0 0 0 4.5,4.5 h 11.021485 a 4.5,4.5 0 0 0 4.500004,-4.5 V 61.509766 a 4.5,4.5 0 0 0 -4.500004,-4.5 z"
     transform="matrix(1.1435996,0,0,1.1435996,33.695241,-6.354978)" />
  <path
     id="path825"
     style="fill:#ffffff;fill-opacity:1;stroke-width:0.75"
     sodipodi:type="inkscape:offset"
     inkscape:radius="0"
     inkscape:original="M 85.175781 57.009766 A 4.5 4.5 0 0 0 80.675781 61.509766 L 80.675781 72.53125 A 4.5 4.5 0 0 0 85.175781 77.03125 L 96.197266 77.03125 A 4.5 4.5 0 0 0 100.69727 72.53125 L 100.69727 61.509766 A 4.5 4.5 0 0 0 96.197266 57.009766 L 85.175781 57.009766 z "
     d="m 85.175781,57.009766 a 4.5,4.5 0 0 0 -4.5,4.5 V 72.53125 a 4.5,4.5 0 0 0 4.5,4.5 h 11.021485 a 4.5,4.5 0 0 0 4.500004,-4.5 V 61.509766 a 4.5,4.5 0 0 0 -4.500004,-4.5 z"
     transform="matrix(1.1435996,0,0,1.1435996,8.0542662,-31.657119)" />
  <path
     id="path826"
     style="fill:#ffffff;fill-opacity:1;stroke-width:0.75"
     sodipodi:type="inkscape:offset"
     inkscape:radius="0"
     inkscape:original="M 85.175781 57.009766 A 4.5 4.5 0 0 0 80.675781 61.509766 L 80.675781 72.53125 A 4.5 4.5 0 0 0 85.175781 77.03125 L 96.197266 77.03125 A 4.5 4.5 0 0 0 100.69727 72.53125 L 100.69727 61.509766 A 4.5 4.5 0 0 0 96.197266 57.009766 L 85.175781 57.009766 z "
     d="m 85.175781,57.009766 a 4.5,4.5 0 0 0 -4.5,4.5 V 72.53125 a 4.5,4.5 0 0 0 4.5,4.5 h 11.021485 a 4.5,4.5 0 0 0 4.500004,-4.5 V 61.509766 a 4.5,4.5 0 0 0 -4.500004,-4.5 z"
     transform="matrix(1.1435996,0,0,1.1435996,33.695241,-31.657119)" />
</svg>
